<?xml version="1.0" encoding="UTF-8" standalone="no"?>
<!DOCTYPE svg PUBLIC "-//W3C//DTD SVG 1.1//EN" "http://www.w3.org/Graphics/SVG/1.1/DTD/svg11.dtd">
<svg version="1.1" xmlns="http://www.w3.org/2000/svg" xmlns:xlink="http://www.w3.org/1999/xlink" preserveAspectRatio="xMidYMid meet" viewBox="0 0 640 640" width="640" height="640"><defs><path d="M415 250.42C426.05 250.42 435 259.37 435 270.42C435 282.42 435 298.42 435 310.42C435 321.46 426.05 330.42 415 330.42C361.5 330.42 221 330.42 167.5 330.42C156.45 330.42 147.5 321.46 147.5 310.42C147.5 298.42 147.5 282.42 147.5 270.42C147.5 259.37 156.45 250.42 167.5 250.42C221 250.42 361.5 250.42 415 250.42Z" id="bJXYSMBKJ"></path><path d="M409.38 256.67C418.69 256.67 426.25 264.22 426.25 273.54C426.25 283.67 426.25 297.17 426.25 307.29C426.25 316.61 418.69 324.17 409.38 324.17C359.25 324.17 225.75 324.17 175.63 324.17C166.31 324.17 158.75 316.61 158.75 307.29C158.75 297.17 158.75 283.67 158.75 273.54C158.75 264.22 166.31 256.67 175.63 256.67C225.75 256.67 359.25 256.67 409.38 256.67Z" id="a47UBKG4gL"></path></defs><g><g><g><use xlink:href="#bJXYSMBKJ" opacity="1" fill="#747474" fill-opacity="1"></use></g><g><use xlink:href="#a47UBKG4gL" opacity="1" fill="#7dab2e" fill-opacity="1"></use></g></g></g></svg>